<?xml version="1.0" standalone="no"?>
<!DOCTYPE svg PUBLIC "-//W3C//DTD SVG 20010904//EN"
 "http://www.w3.org/TR/2001/REC-SVG-20010904/DTD/svg10.dtd">
<svg version="1.0" xmlns="http://www.w3.org/2000/svg"
 width="1024.000000pt" height="1024.000000pt" viewBox="0 0 1024.000000 1024.000000"
 preserveAspectRatio="xMidYMid meet">
<metadata>
Created by potrace 1.11, written by Peter Selinger 2001-2013
</metadata>
<g transform="translate(0.000000,1024.000000) scale(0.100000,-0.100000)"
fill="#000000" stroke="none">
<path d="M2318 8085 c-2 -2 -43 -5 -93 -9 -122 -8 -160 -13 -302 -42 -253 -51
-430 -111 -675 -231 -580 -283 -977 -746 -1044 -1218 -9 -64 -10 -206 -2 -266
23 -162 96 -282 211 -347 64 -35 156 -71 205 -78 21 -3 43 -7 50 -9 7 -3 53
-8 103 -11 l91 -7 -25 49 c-23 45 -47 129 -63 214 -8 44 -8 290 0 350 34 248
76 383 173 557 214 382 582 635 1075 738 98 20 411 28 503 13 186 -31 314 -89
424 -194 76 -72 122 -143 158 -246 22 -62 27 -93 29 -204 1 -72 -2 -149 -7
-170 -5 -22 -12 -52 -15 -67 -14 -75 -97 -259 -156 -346 -106 -156 -252 -288
-403 -363 -85 -43 -152 -60 -275 -72 -67 -7 -72 0 -55 64 8 30 17 71 20 90 3
19 17 85 30 145 13 61 26 121 29 135 2 14 11 57 20 95 8 39 17 82 20 95 2 14
28 133 56 265 28 132 54 254 57 270 2 17 11 55 18 85 7 30 16 72 19 93 l6 38
-52 -6 c-29 -3 -66 -7 -83 -10 -67 -11 -93 -14 -150 -20 -33 -4 -67 -8 -75
-10 -8 -3 -42 -7 -75 -10 -33 -3 -67 -7 -75 -10 -8 -2 -39 -7 -69 -10 -30 -4
-61 -8 -70 -10 -9 -2 -44 -6 -76 -10 -33 -4 -67 -9 -75 -10 -8 -2 -38 -6 -67
-10 -44 -6 -52 -10 -57 -31 -4 -14 -24 -109 -46 -212 -21 -103 -51 -239 -65
-302 -14 -63 -28 -126 -30 -140 -3 -14 -16 -79 -31 -145 -14 -66 -28 -131 -30
-145 -3 -14 -7 -33 -10 -42 -3 -10 -7 -28 -9 -40 -3 -13 -36 -169 -74 -348
-38 -179 -72 -336 -75 -350 -2 -14 -10 -47 -16 -75 -6 -27 -13 -59 -16 -70 -2
-11 -17 -85 -35 -165 -17 -80 -48 -228 -70 -330 -22 -102 -46 -212 -54 -245
-7 -33 -17 -75 -20 -94 -3 -19 -38 -181 -76 -360 -39 -179 -72 -335 -75 -346
-2 -11 -26 -125 -54 -253 -27 -128 -50 -240 -50 -248 0 -12 63 -14 444 -14
l444 0 6 24 c6 25 53 240 60 274 1 9 6 28 9 42 7 27 166 769 173 810 3 14 12
53 19 88 8 35 26 116 40 180 13 64 40 191 60 281 19 90 37 173 39 185 3 11 27
126 55 254 28 129 51 235 51 237 0 19 345 27 430 9 125 -26 232 -95 306 -196
34 -46 90 -165 100 -211 30 -145 36 -199 38 -342 1 -144 -6 -276 -18 -345 -3
-14 -7 -42 -10 -62 -57 -381 -264 -684 -497 -726 -156 -29 -300 21 -437 152
-29 28 -57 52 -61 54 -7 2 -43 -107 -70 -211 -14 -56 -12 -229 5 -283 18 -59
65 -134 109 -173 72 -63 188 -115 284 -127 25 -3 54 -8 64 -10 25 -8 222 -7
292 1 201 23 372 90 520 203 320 247 534 619 630 1096 14 71 28 150 31 175 2
25 7 57 10 71 3 14 7 102 9 195 8 361 -82 624 -277 811 -110 105 -213 164
-364 206 l-80 23 85 56 c274 181 463 463 518 772 9 55 10 238 1 303 -12 83
-47 183 -96 279 -37 71 -67 109 -142 186 -135 136 -278 223 -475 287 -138 45
-220 63 -365 78 -62 6 -357 13 -362 9z"/>
<path d="M5620 6558 c-41 -4 -97 -13 -125 -19 -27 -6 -61 -13 -75 -15 -58 -11
-162 -50 -255 -96 -199 -99 -321 -195 -505 -397 -104 -114 -242 -348 -340
-577 -41 -94 -125 -335 -135 -384 -2 -8 -10 -42 -18 -75 -22 -85 -45 -201 -52
-261 -3 -28 -8 -61 -10 -75 -8 -38 -19 -207 -19 -284 0 -216 34 -376 110 -527
47 -96 90 -153 169 -226 133 -125 305 -193 555 -219 376 -39 700 68 998 332
107 94 262 300 352 469 104 195 207 484 244 689 5 27 22 124 31 174 3 16 8 57
11 93 4 36 8 72 10 80 1 8 3 21 3 28 1 6 8 12 17 12 39 0 259 55 368 91 65 22
120 38 122 36 2 -2 -12 -77 -31 -168 -20 -90 -45 -207 -56 -259 -11 -52 -22
-106 -25 -120 -2 -14 -16 -77 -30 -140 -14 -63 -29 -135 -34 -160 -5 -25 -11
-54 -13 -65 -6 -28 -25 -152 -32 -205 -6 -51 -7 -255 -1 -285 2 -11 7 -42 10
-70 31 -218 144 -377 336 -471 37 -19 99 -41 136 -50 75 -17 238 -24 294 -13
216 45 280 66 375 123 58 34 149 110 219 181 27 28 46 45 42 39 -3 -7 -8 -29
-12 -50 -3 -20 -9 -47 -14 -58 -4 -12 -8 -24 -8 -29 -1 -4 -6 -34 -13 -66
l-11 -59 -102 -32 c-96 -30 -309 -103 -351 -120 -136 -55 -319 -160 -385 -222
-105 -98 -193 -246 -219 -370 -28 -131 -20 -297 19 -400 84 -226 288 -391 545
-443 69 -14 281 -14 350 0 76 15 202 46 220 54 184 80 304 171 424 321 140
175 239 414 297 714 2 11 18 88 35 171 17 82 32 157 34 165 2 8 29 135 60 282
31 148 59 280 61 295 3 15 21 98 39 185 19 86 37 172 40 190 4 18 11 53 16 78
6 25 13 56 15 70 3 14 14 63 24 110 17 75 61 286 91 435 15 73 12 58 103 490
47 220 87 411 90 425 5 25 50 238 106 503 17 76 30 141 30 145 0 4 -201 7
-446 7 -385 0 -447 -2 -453 -15 -4 -8 -16 -55 -26 -105 -9 -49 -33 -162 -52
-250 -19 -88 -37 -170 -39 -182 -2 -13 -6 -33 -8 -45 -4 -21 -97 -456 -166
-778 -16 -74 -31 -146 -33 -160 -3 -14 -15 -70 -27 -125 -12 -55 -24 -111 -26
-125 -63 -342 -163 -550 -330 -689 -75 -62 -242 -81 -312 -35 -25 16 -67 98
-77 149 -11 60 -6 188 10 245 2 8 7 29 10 45 2 17 7 39 9 50 3 11 28 128 56
260 47 222 64 300 76 365 3 14 11 53 19 86 8 34 16 73 19 85 3 13 9 47 15 74
5 28 22 104 36 170 15 66 29 134 32 150 2 17 11 55 18 85 7 30 16 69 19 85 2
17 30 149 61 295 69 323 64 299 71 335 l5 30 -446 0 c-438 0 -446 0 -451 -20
-9 -41 -85 -401 -89 -427 -14 -75 -76 -356 -84 -373 -12 -29 -244 -103 -376
-121 -58 -7 -173 -10 -179 -3 -2 2 -7 47 -10 99 -14 208 -42 337 -102 468 -88
194 -218 309 -415 370 -114 35 -278 46 -439 30z m346 -403 c57 -44 83 -109
100 -256 l6 -56 -33 -13 c-37 -16 -93 -71 -116 -115 -29 -55 -42 -127 -39
-214 5 -132 41 -198 131 -236 24 -9 32 -19 30 -32 -3 -10 -13 -67 -25 -128
-26 -143 -25 -137 -49 -231 -79 -306 -220 -597 -362 -745 -106 -110 -191 -151
-306 -148 -173 5 -257 84 -280 268 -10 74 -10 360 0 436 4 33 10 77 12 98 37
280 196 767 321 979 19 33 34 61 34 63 0 3 23 39 52 82 65 97 178 213 238 243
102 53 220 55 286 5z m2164 -3034 c-17 -82 -33 -162 -36 -178 -11 -65 -58
-213 -89 -281 -60 -129 -178 -224 -280 -225 -108 -1 -167 31 -229 128 -25 38
-25 143 0 218 66 204 250 350 594 473 35 13 66 21 68 19 2 -2 -10 -71 -28
-154z"/>
</g>
</svg>
