<?xml version="1.0" encoding="UTF-8"?>
<svg id="_レイヤー_1" data-name="レイヤー 1" xmlns="http://www.w3.org/2000/svg" version="1.1" viewBox="0 0 1024 1024">
  <defs>
    <style>
      .cls-1 {
        fill: #000;
        stroke-width: 0px;
      }
    </style>
  </defs>
  <g>
    <path class="cls-1" d="M173.5,566.3c-8.5,0-16.6-1.1-24.2-3.3-7.6-2.2-14-5-19.2-8.5l7.9-23c3.4,2.1,7,3.9,10.8,5.5,3.8,1.6,7.9,2.8,12.1,3.7,4.3.9,8.5,1.3,12.8,1.3,6.4,0,10.9-.9,13.3-2.6,2.4-1.7,3.6-3.8,3.6-6.4s-.8-4.2-2.3-5.5c-1.5-1.3-4.6-2.4-9.1-3.3l-18.3-4c-9.6-2.1-16.8-5.7-21.6-10.9-4.8-5.2-7.2-11.9-7.2-20.2s1.9-13.5,5.6-18.8c3.7-5.3,9-9.5,15.8-12.6,6.8-3,14.8-4.6,23.9-4.6s14.4,1.1,21,3.3c6.5,2.2,11.9,5.1,16.2,8.7l-8,21.6c-3.9-3-8.3-5.3-13.3-6.9-5-1.6-10.5-2.4-16.4-2.4s-9.8.9-12.6,2.6c-2.9,1.7-4.3,4.2-4.3,7.4s.8,3.9,2.5,5.4c1.7,1.6,4.8,2.8,9.4,3.7l18,3.9c9.5,1.9,16.7,5.3,21.5,10.5,4.8,5.1,7.2,11.8,7.2,20.1s-1.9,13.2-5.6,18.5c-3.8,5.3-9,9.5-15.7,12.4-6.7,2.9-14.5,4.4-23.6,4.4Z"/>
    <path class="cls-1" d="M228.1,564.6v-109.4h27.3v46.8h-2.2c2.5-4.7,6-8.3,10.5-10.8,4.5-2.6,9.6-3.9,15.4-3.9,8.9,0,15.6,2.7,19.9,8,4.4,5.3,6.5,13.4,6.5,24.3v45h-27.3v-44.1c0-4.4-.8-7.5-2.3-9.4-1.5-1.9-3.9-2.8-7.2-2.8s-7.2,1.3-9.6,3.8c-2.4,2.5-3.6,5.9-3.6,10.2v42.4h-27.3Z"/>
    <path class="cls-1" d="M347.8,566.3c-6.4,0-12.2-1.6-17.2-4.8-5-3.2-8.9-7.8-11.7-13.6-2.8-5.8-4.2-12.9-4.2-21.3s1.4-15.2,4.2-21.1c2.8-5.9,6.7-10.5,11.7-13.6,5-3.1,10.7-4.7,17.2-4.7s11,1.4,15.8,4.1c4.8,2.7,7.8,6.3,9.2,10.8h-1.5l1.8-13.1h26.2c-.4,3.4-.7,6.8-.9,10.3-.2,3.5-.3,6.9-.3,10.4v54.8h-27l-.3-12.5h1.9c-1.6,4.3-4.7,7.7-9.4,10.3-4.7,2.6-9.8,3.9-15.5,3.9ZM356.5,546c4.4,0,7.9-1.5,10.6-4.5,2.7-3,4-8,4-14.8s-1.3-11.6-4-14.6c-2.7-3-6.2-4.5-10.6-4.5s-7.7,1.5-10.4,4.5c-2.7,3-4,7.9-4,14.6s1.3,11.8,4,14.8c2.7,3,6.1,4.5,10.4,4.5Z"/>
    <path class="cls-1" d="M440.2,566.3c-6.5,0-12.3-1.6-17.3-4.8-5-3.2-8.9-7.8-11.8-13.6-2.9-5.8-4.3-12.9-4.3-21.3s1.4-15.2,4.3-21.1c2.9-5.9,6.8-10.5,11.8-13.6,5-3.1,10.8-4.7,17.3-4.7s10.9,1.3,15.5,3.9c4.6,2.6,7.7,6,9.3,10.3h-2.2v-46.2h27.3v109.4h-26.9v-13.2h1.9c-1.4,4.5-4.4,8.1-9.1,10.8-4.7,2.8-10,4.2-15.8,4.2ZM448.9,546c4.3,0,7.8-1.5,10.5-4.5,2.7-3,4.1-8,4.1-14.8s-1.4-11.6-4.1-14.6c-2.7-3-6.2-4.5-10.5-4.5s-7.6,1.5-10.4,4.5c-2.8,3-4.2,7.9-4.2,14.6s1.4,11.8,4.2,14.8c2.8,3,6.2,4.5,10.4,4.5Z"/>
    <path class="cls-1" d="M542.4,566.3c-13.8,0-24.5-3.6-32.1-10.7-7.6-7.1-11.4-16.8-11.4-29s1.6-14.5,4.8-20.4c3.2-5.8,7.7-10.5,13.4-13.9,5.8-3.4,12.6-5.1,20.3-5.1s14.2,1.7,19.3,5.1c5.2,3.4,9,8,11.6,13.9,2.6,5.9,3.9,12.6,3.9,20.1v5.6h-50.2v-12.8h29.9l-2.5,2.2c0-5.5-1-9.6-3-12.3-2-2.6-4.9-3.9-8.8-3.9s-7.3,1.6-9.5,4.8c-2.2,3.2-3.3,8.1-3.3,14.5v3c0,6.3,1.6,11,4.8,14,3.2,3,7.8,4.5,13.8,4.5s7.6-.4,11.1-1.3c3.5-.9,6.9-2.3,10-4.2l7,17.8c-3.9,2.5-8.3,4.4-13.2,5.9-5,1.4-10.2,2.2-15.8,2.2Z"/>
    <path class="cls-1" d="M580.5,564.6v-54.7c0-3.5-.1-7-.3-10.5-.2-3.5-.5-7-.9-10.3h26.3l3.1,23.5h-4.3c1-5.7,2.6-10.5,4.8-14.2s4.9-6.5,8.1-8.3c3.2-1.8,7.1-2.7,11.7-2.7s3.7,0,4.8.2c1.1.1,2.2.5,3.3,1.1v23.9c-2.4-1.1-4.4-1.8-5.9-2.1-1.6-.3-3.6-.4-5.9-.4-4.1,0-7.4.7-9.9,2.1s-4.4,3.5-5.5,6.5c-1.1,2.9-1.7,6.8-1.7,11.5v34.5h-27.5Z"/>
    <path class="cls-1" d="M644.5,564.6v-109.4h51.4c11.7,0,20.7,2.6,27,7.7s9.4,12,9.4,20.7-1.8,11.9-5.4,16.4c-3.6,4.6-8.5,7.6-14.9,9.2v-2.5c7.4,1.5,13.2,4.4,17.2,9,4.1,4.6,6.1,10.4,6.1,17.7s-3.4,17.2-10.2,22.8c-6.8,5.6-16.1,8.4-27.9,8.4h-52.9ZM671.6,498.1h19c5.2,0,8.9-.9,11.1-2.6,2.3-1.8,3.4-4.4,3.4-8.1s-1.1-6.4-3.4-8.1-6-2.6-11.1-2.6h-19v21.4ZM671.6,543h22.1c5.1,0,8.8-1,11.2-2.9,2.4-1.9,3.6-4.8,3.6-8.6s-1.2-7.1-3.6-8.9c-2.4-1.8-6.2-2.7-11.2-2.7h-22.1v23.1Z"/>
    <path class="cls-1" d="M783.4,566.3c-8.4,0-15.7-1.6-21.9-4.8-6.2-3.2-11-7.8-14.4-13.7-3.4-5.9-5.1-13-5.1-21.2s1.7-15.1,5.1-21c3.4-5.8,8.2-10.4,14.4-13.6,6.2-3.2,13.5-4.8,22.1-4.8s15.7,1.6,21.8,4.8c6.1,3.2,10.9,7.8,14.3,13.7s5.1,12.9,5.1,20.9-1.7,15.2-5.1,21.1c-3.4,5.9-8.2,10.5-14.4,13.8-6.2,3.2-13.5,4.8-21.9,4.8ZM783.4,546c4.2,0,7.5-1.5,10-4.5,2.5-3,3.8-8,3.8-14.8s-1.3-11.6-3.8-14.6c-2.5-3-5.9-4.5-10.2-4.5s-7.6,1.5-10,4.5c-2.4,3-3.6,7.9-3.6,14.6s1.2,11.8,3.6,14.8c2.4,3,5.8,4.5,10.2,4.5Z"/>
    <path class="cls-1" d="M826.3,590.4l-1.4-22c4.8.2,9,.2,12.4,0,3.4-.2,4.9-.4,7.6-1.1,2.8-.7,5.6-2.1,6.7-4.9l3.4-7.7-.7,10.1-33-75.8h28.8l19,49.2h-5l19.6-49.2h26.9l-30.5,69.1c-2.7,6.2-7.3,15.9-10.2,19.9-3.8,5.2-8.5,8.6-14.5,10.5-4,1.2-10.6,2.1-14.9,2.2-4.3,0-9,0-14.1-.3Z"/>
  </g>
  <path class="cls-1" d="M863,632H161c-66.2,0-120-53.8-120-120s53.8-120,120-120h702c66.2,0,120,53.8,120,120s-53.8,120-120,120ZM161,421.1c-50.1,0-90.9,40.8-90.9,90.9s40.8,90.9,90.9,90.9h702c50.1,0,90.9-40.8,90.9-90.9s-40.8-90.9-90.9-90.9H161Z"/>
</svg>