<?xml version="1.0" encoding="utf-8"?>
<!-- Generator: Adobe Illustrator 23.0.3, SVG Export Plug-In . SVG Version: 6.00 Build 0)  -->
<svg version="1.1" id="Layer_1" xmlns="http://www.w3.org/2000/svg" xmlns:xlink="http://www.w3.org/1999/xlink" x="0px" y="0px"
	 viewBox="0 0 1018.2 228.4" style="enable-background:new 0 0 1018.2 228.4;" xml:space="preserve">
<style type="text/css">
	.st0{fill:#D8D4C5;}
</style>
<g id="gzHgCk_1_">
	<g>
		<path class="st0" d="M1016.1,116.8c-2.4,0-4.8,0.1-7.3,0.1c-10.8,0-21.5,0-32.3,0c-0.7,0-1.5,0-2.2,0c-0.9,6.4,4.2,14,10.9,16.4
			c8.1,3,15.1,0.2,20.4-8.1c2.8,1.2,5.6,2.3,8.7,3.6c-0.4,0.8-0.6,1.4-1,2.1c-4.8,8.9-15.1,13.6-25.6,12.4
			c-13.7-1.6-24.1-13.1-23.6-29.1c0.3-9.6,4-17.6,11.9-23.2c14.9-10.5,35.8-1.9,39.3,16c0.3,1.4,0.5,2.7,0.8,4.1
			C1016.1,113,1016.1,114.9,1016.1,116.8z M975,108.6c10.2,0,20.3,0,30.4,0c-0.4-7.1-6.3-12.3-14.3-12.7
			C983.2,95.4,976.3,100.8,975,108.6z"/>
		<path class="st0" d="M490.8,111.6c0-3.6,0-6.9,0-10.4c0.6,0,1.1-0.1,1.6-0.1c10.4,0,20.9,0,31.3,0c1.6,0,2.1,0.5,2.2,2
			c0.7,7.2,0,14.3-3.2,20.9c-5,10.3-13.4,16.2-24.4,18.2c-12.7,2.2-24.2-0.9-33.8-9.7c-18.4-16.7-15.7-46.6,5.3-59.8
			c15-9.5,33.5-8.1,46,3.4c0.3,0.3,0.7,0.4,0.9,0.6c-2.6,2.6-5,4.9-7.5,7.4c-3.4-3-7.4-5.3-12.1-6.5c-16-3.8-31.8,7.4-33.5,23.7
			c-1.4,14.5,6.9,27.1,20.7,30.3c9.5,2.2,18.2,0.4,25.4-6.6c3.6-3.6,5.1-8.1,5.8-13.3C507.2,111.6,499.1,111.6,490.8,111.6z"/>
		<path class="st0" d="M774.6,141.5c0-25.8,0-51.6,0-77.7c1,0,1.9,0,2.9,0c8.8,0.1,17.7-0.2,26.4,0.5c18,1.3,31.4,14.8,33.3,32.7
			c1,9.3,0,18.3-4.8,26.5c-6.4,10.9-16.2,16.8-28.6,17.7c-9.4,0.7-19,0.3-28.5,0.4C775,141.7,774.8,141.6,774.6,141.5z M784.6,73.1
			c0,20.1,0,39.5,0,59.3c6.6-0.2,13.1,0.1,19.5-0.7c10.1-1.2,17.5-6.6,21.2-16.4c2.2-5.8,2.3-11.8,1.7-17.9
			c-1.2-11.4-9.1-21-20.2-22.8C799.6,73.3,792.1,73.5,784.6,73.1z"/>
		<path class="st0" d="M673.5,137.4c-9.2,9.3-24.3,5.5-31.6-4.6c-10.4-14.3-2.6-35.2,14.6-38.8c6.3-1.3,11,0,17.3,5
			c0.1-1.3,0.1-2.5,0.2-3.8c3.3,0,6.5,0,9.9,0c0.1,0.3,0.2,0.7,0.2,1.1c0,15.3,0.1,30.6-0.2,45.9c-0.1,7.6-2.8,14.4-9.5,18.9
			c-12.1,8.2-30.2,2.7-35.2-10.8c3-1.3,6-2.5,9.1-3.8c0.5,0.8,0.9,1.5,1.3,2.1c3.4,5.4,9.2,7.7,15.3,6c4.4-1.2,7.2-4.2,8.2-8.6
			c0.6-2.8,0.6-5.7,0.9-8.5C673.9,137.5,673.7,137.4,673.5,137.4z M674.8,118.2c-0.2-1.4-0.3-2.8-0.6-4.2
			c-2.3-10.2-13.5-14.2-21.1-7.6c-6.7,5.8-6.9,17.2-0.3,23.2c5.7,5.2,14.4,4.4,18.8-1.7C673.8,125,674.6,121.8,674.8,118.2z"/>
		<path class="st0" d="M579,118.1c0.1,13.9-10.6,24.6-24.5,24.6s-24.6-10.6-24.6-24.5s10.5-24.6,24.5-24.6
			C568.2,93.5,579,104.1,579,118.1z M554.4,133c7.7,0,13.7-6.3,13.9-14.6c0.1-7.7-5-14.2-11.9-15c-9-1.1-16.2,5.9-15.8,15.3
			C541.1,127,546.9,133,554.4,133z"/>
		<path class="st0" d="M583.6,118.1c0-13.9,10.7-24.6,24.5-24.6c13.9,0,24.5,10.7,24.5,24.6s-10.7,24.6-24.5,24.6
			C594.2,142.7,583.6,132,583.6,118.1z M621.9,118.4c0.1-4.3-1.5-8.3-4.3-11.2c-6.3-6.3-16.8-4.9-21.2,2.9c-3,5.4-3,11,0.2,16.3
			c2.8,4.7,7.1,6.8,12.5,6.6C616.2,132.6,621.7,126.3,621.9,118.4z"/>
		<path class="st0" d="M744,126.4c2.7,1.8,5.3,3.6,8.2,5.5c-4.3,6.1-10,9.8-17.3,10.7c-11.2,1.4-21.5-4.7-25.6-14.9
			c-4.2-10.6-1-23.1,7.7-29.7c10.5-7.9,24.8-5.2,31.9,6.2c1.5,2.4,2.5,5,3.9,7.7c-11.1,4.6-21.9,9.1-32.7,13.6
			C722.6,133.3,736.4,137.3,744,126.4z M718.4,117.3c7.2-3,14.4-6,21.5-9c-1.9-4.2-7.1-6.2-12.1-4.8
			C721.9,105.3,717.6,111.4,718.4,117.3z"/>
		<path class="st0" d="M41.5,128.8c2.3-11.2,4.6-22.4,6.9-33.7c2.6,0,5.1,0,7.9,0c-3.5,15.3-7,30.4-10.6,45.9
			c-2.2,0-4.5,0.1-6.8-0.1c-0.5,0-1.1-1-1.3-1.6c-2.6-9.6-5.1-19.2-7.6-28.9c-0.2-0.7-0.4-1.4-1-2.1c-2.9,10.9-5.8,21.7-8.7,32.6
			c-2.6,0-5.1,0-7.7,0C9.1,125.7,5.6,110.5,2,95c2.6,0,5,0,7.3,0.1c0.4,0,0.9,1,1.1,1.6c2.2,10.3,4.3,20.5,6.4,30.8
			c0.1,0.4,0.2,0.7,0.7,1.1c1.3-4.9,2.5-9.8,3.8-14.7c1.4-5.7,2.9-11.3,4.3-17c0.3-1.3,0.8-1.9,2.3-1.9c4.9,0.1,4.9,0,6.1,4.7
			c2.4,9.7,4.9,19.4,7.3,29.1C41.2,128.8,41.4,128.8,41.5,128.8z"/>
		<path class="st0" d="M290.6,141c-2.3,0-4.5,0.1-6.6-0.1c-0.5,0-1.2-0.9-1.4-1.5c-2.6-9.7-5.1-19.4-7.6-29.1
			c-0.2-0.7-0.4-1.4-1-2.1c-2.9,10.9-5.8,21.7-8.7,32.6c-2.6,0-5,0-7.7,0c-3.5-15.2-7-30.4-10.6-45.9c2.5,0,4.9-0.1,7.2,0.1
			c0.4,0,0.9,1,1,1.6c2.2,10.3,4.3,20.5,6.4,30.8c0.1,0.4,0.2,0.7,0.7,1.1c1.3-4.9,2.5-9.8,3.8-14.7c1.5-5.7,3-11.5,4.4-17.2
			c0.3-1.2,0.7-1.6,2-1.6c5,0,5-0.1,6.3,4.9c2.4,9.6,4.9,19.3,7.6,29c2.3-11.2,4.6-22.4,6.9-33.7c2.6,0,5.1,0,7.9,0
			C297.7,110.4,294.2,125.6,290.6,141z"/>
		<path class="st0" d="M960.7,88.5c-2.5,6.1-4.8,11.9-7.2,17.7c-4.6,11.3-9.2,22.5-13.7,33.8c-0.5,1.3-1.2,1.9-2.6,1.8
			c-2.2-0.1-4.4,0-6.7-0.1c-0.6,0-1.6-0.6-1.8-1.1c-7-17.2-13.9-34.4-20.8-51.6c0-0.1,0-0.1,0.1-0.5c3.3,0,6.6-0.1,9.9,0.1
			c0.5,0,1,1.1,1.3,1.7c4.5,11.7,8.9,23.5,13.3,35.3c0.5,1.3,1,2.6,1.7,4.3c0.4-0.9,0.6-1.4,0.8-1.9c4.8-12.6,9.7-25.2,14.5-37.9
			c0.5-1.3,1.1-1.8,2.5-1.7C954.7,88.6,957.5,88.5,960.7,88.5z"/>
		<path class="st0" d="M133.5,121.5c3.5,6.5,6.9,12.8,10.5,19.5c-3,0-5.6,0.1-8.3-0.1c-0.4,0-0.9-0.8-1.2-1.4
			c-2.6-4.9-5.2-9.9-7.7-14.9c-0.5-1-1.1-1.5-2.3-1.5c-2.3,0.1-4.7,0-7.3,0c0,5.9,0,11.7,0,17.6c-2.7,0-5.2,0-7.8,0
			c0-15.2,0-30.5,0-46c8.1,0.6,16.3-1.1,24.1,1.5c5.7,1.9,8.2,6.2,8.4,12c0.2,5.3-1.9,9.4-6.5,12.1
			C134.8,120.8,134.3,121.1,133.5,121.5z M117.2,116.8c3.5,0,6.8,0.2,10.1-0.1c3.9-0.3,6.4-3.1,6.6-6.9c0.2-3.9-1.7-7.2-5.2-7.8
			c-3.7-0.6-7.6-0.5-11.5-0.7C117.2,106.7,117.2,111.6,117.2,116.8z"/>
		<path class="st0" d="M403.7,141c-2.6,0-5.1,0-7.8,0c0-6.7,0-13.4,0-20.3c-6.9,0-13.6,0-20.6,0c0,6.8,0,13.4,0,20.2
			c-2.7,0-5.2,0-7.8,0c0-15.3,0-30.5,0-45.8c2.6,0,5,0,7.7,0c0,6.3,0,12.5,0,18.9c7,0,13.7,0,20.7,0c0-6.3,0-12.5,0-18.9
			c2.7,0,5.2,0,7.9,0C403.7,110.4,403.7,125.6,403.7,141z"/>
		<path class="st0" d="M99.7,118.4c0.2,5.9-1,11.4-4.6,16.4c-6.4,9-22.1,9.1-28.7,0.2c-2.7-3.6-4.2-7.6-4.6-12.1
			c-0.5-6.1-0.5-12.2,2.3-18C67.5,98,73,94.5,80.7,94.5c7.8,0,13.3,3.5,16.7,10.6C99.3,109.3,99.8,113.7,99.7,118.4z M92.2,118.1
			c-0.1,0-0.2,0-0.3-0.1c-0.1-1.9-0.2-3.9-0.5-5.8c-0.2-1.4-0.6-2.8-1-4.1c-1.5-4.4-4.8-6.9-9.3-7.1c-4.2-0.2-8.1,2.1-9.6,6.3
			c-2.6,7-2.6,14.3,0,21.3c1.6,4.4,5.3,6.5,10,6.3c4.4-0.2,7.7-2.6,9-7.1C91.3,124.8,91.6,121.4,92.2,118.1z"/>
		<path class="st0" d="M150.9,95.1c2.6,0,5,0,7.7,0c0,7,0,13.9,0,20.8c0.1,0.1,0.3,0.1,0.4,0.2c0.4-0.5,0.9-1,1.3-1.6
			c5.1-6.1,10.1-12.2,15.3-18.3c0.6-0.7,1.6-1.1,2.5-1.2c2.5-0.2,5-0.1,8.1-0.1c-5.9,7-11.4,13.6-17.1,20.4
			c5.9,8.4,11.9,16.8,18,25.6c-3.2,0-6.1,0.1-8.9-0.1c-0.5,0-1.1-0.7-1.4-1.2c-3.9-5.5-7.7-11-11.6-16.6c-0.4-0.6-0.9-1.2-1.4-2
			c-1.6,1.7-3.3,3.3-4.7,5.1c-0.4,0.5-0.5,1.4-0.5,2.1c0,4.2,0,8.3,0,12.6c-2.7,0-5.1,0-7.8,0C150.9,125.7,150.9,110.5,150.9,95.1z"
			/>
		<path class="st0" d="M224.3,108.4c-2.7,0-5.1,0-7.6,0c-1.9-6.6-6.5-9.1-12.8-7c-2.5,0.8-4,2.4-4.3,5c-0.3,2.5,0.9,4.4,3.1,5.4
			c3,1.4,6.3,2.3,9.3,3.7c3,1.4,6.3,2.7,8.7,4.9c6.1,5.4,4.6,15.1-2.6,19.1c-7,3.8-18.3,2.5-24-2.9c-2.6-2.4-4.1-5.4-3.9-9.4
			c2.4,0,4.6-0.1,6.9,0.1c0.4,0,1,0.8,1.1,1.3c0.5,3.3,2.4,5.3,5.6,6.2c2.9,0.8,5.8,0.9,8.7-0.1c2.2-0.8,3.6-2.3,3.9-4.7
			c0.3-2.5-0.4-4.7-2.7-5.8c-2.6-1.3-5.5-2.2-8.2-3.4c-3.1-1.4-6.3-2.5-9-4.4c-6.9-4.8-6.5-14.4,0.5-19c6.3-4.1,16-3.9,21.9,0.4
			C222.3,100.4,224.1,103.8,224.3,108.4z"/>
		<path class="st0" d="M691.7,69.1c3.5,0,6.9,0,10.4,0c0,24,0,48,0,72c-3.5,0-6.9,0-10.4,0C691.7,117.2,691.7,93.3,691.7,69.1z"/>
		<path class="st0" d="M856.9,141.6c-3.4,0-6.5,0-9.8,0c0-17.7,0-35.3,0-53c3.1,0,6.1,0,9.4,0c0,2.7,0,5.4,0,8.1
			c0.1,0.1,0.3,0.2,0.4,0.2c1.9-4.5,5.4-7,9.7-8.7s8.6-1.4,13.2,0.1c-1.3,3.2-2.5,6.2-3.6,9c-2.4-0.1-4.7-0.5-6.9-0.3
			c-7.2,0.9-12.2,7-12.3,15c-0.1,9,0,18,0,27.1C856.9,139.9,856.9,140.7,856.9,141.6z"/>
		<path class="st0" d="M360.1,95.1c0,2.1,0,4.1,0,6.3c-4.7,0-9.3,0-14.2,0c0,13.2,0,26.3,0,39.5c-2.7,0-5.2,0-7.9,0
			c0-13.1,0-26.1,0-39.4c-4.8,0-9.4,0-14.1,0c0-2.2,0-4.2,0-6.4C335.9,95.1,347.9,95.1,360.1,95.1z"/>
		<path class="st0" d="M888.8,141.6c0-17.8,0-35.3,0-53c3.3,0,6.4,0,9.7,0c0,17.7,0,35.3,0,53C895.3,141.6,892.2,141.6,888.8,141.6z
			"/>
		<path class="st0" d="M316.6,141c-2.3,0-4.4,0-6.6,0c-0.3,0-0.6-0.1-1-0.1c0-15.3,0-30.4,0-45.7c2.5,0,5,0,7.6,0
			C316.6,110.4,316.6,125.6,316.6,141z"/>
		<path class="st0" d="M886.7,70.1c0-3.9,3.1-7.1,6.9-7.1c3.9,0,7,3.1,7.1,7c0,3.9-3.1,7.1-7,7.1C889.9,77.2,886.7,74.1,886.7,70.1z
			"/>
	</g>
</g>
</svg>
