<?xml version="1.0" encoding="utf-8"?>
<!-- Generator: Adobe Illustrator 23.0.3, SVG Export Plug-In . SVG Version: 6.00 Build 0)  -->
<svg version="1.1" id="Layer_1" xmlns="http://www.w3.org/2000/svg" xmlns:xlink="http://www.w3.org/1999/xlink" x="0px" y="0px"
	 viewBox="0 0 1018.2 228.4" style="enable-background:new 0 0 1018.2 228.4;" xml:space="preserve">
<style type="text/css">
	.st0{fill:#D8D4C5;}
</style>
<g>
	<g>
		<path class="st0" d="M118.1,27.4c0,6.7-1.7,12.2-5,16.6c-3.4,4.3-7.9,6.5-13.7,6.5c-4.3,0-7.8-1.6-10.5-4.8c3-1.8,5.5-4.6,7.4-8.3
			s2.9-7.5,2.9-11.3c0-4-1.2-7.5-3.7-10.5c-2.4-3-6.9-4.6-13.2-4.6S70.8,12.7,67,16.1c-3.8,3.4-5.7,8.6-5.7,15.4
			c0,5.6,1.3,10.5,3.8,14.7s5.7,8.1,9.5,11.9c3.8,3.7,8,7.5,12.4,11.2c4.5,3.7,8.6,7.9,12.4,12.6c3.8,4.6,7,9.9,9.5,15.9
			c2.5,5.9,3.8,13,3.8,21.2c0,9.6-1.8,17.9-5.4,25S99,156.9,93,161.6c-5.9,4.6-12.8,8.1-20.6,10.4c-7.8,2.3-15.8,3.4-24,3.4
			c-6.5,0-12.8-0.7-18.6-2.1c-5.9-1.4-11-3.6-15.4-6.7c-4.4-3.1-7.9-7.1-10.5-12C1.3,149.8,0,143.8,0,136.8c0-6.1,1-11.5,3-16.2
			s4.6-8.6,7.8-11.8c3.2-3.1,6.8-5.5,10.9-7.1c4-1.6,8-2.4,12-2.4c2,0,4.1,0.2,6.3,0.7s4.3,1.3,6.2,2.4s3.5,2.7,4.9,4.7
			s2.3,4.4,2.7,7.3c-3.2,0-6.4,0.4-9.6,1.3c-3.2,0.8-6.1,2.1-8.7,3.9c-2.6,1.8-4.7,4-6.4,6.9c-1.7,2.8-2.5,6.2-2.5,10.2
			c0,5.8,1.9,10.7,5.8,14.6c3.9,4,9.5,5.9,16.8,5.9c7.8,0,14.1-2.5,19-7.7c4.9-5.1,7.3-12.4,7.3-22c0-6.5-1.1-12.4-3.4-17.7
			c-2.3-5.3-5.2-10.1-8.7-14.6c-3.5-4.5-7.3-8.8-11.3-13s-7.8-8.4-11.3-12.6s-6.4-8.6-8.7-13.2s-3.4-9.8-3.4-15.4
			c0-5.9,1.4-11.4,4.1-16.4s6.5-9.3,11.2-12.9C48.6,8,54.2,5.1,60.7,3.1C67.1,1,74,0,81.3,0c2.7,0,6.2,0.3,10.3,0.8
			c4.1,0.5,8.1,1.7,12.1,3.5s7.3,4.6,10.2,8.2C116.7,16.2,118.1,21.2,118.1,27.4z"/>
		<path class="st0" d="M190.1,88.6c0-7.8-2.7-11.7-8.2-11.7c-4.1,0-7.7,2.1-10.7,6.2s-5.4,9.1-7.1,14.8l-15.5,73.3h-32.9l33-155.2
			l33.8-4.6L170.2,69c4.9-5.5,9.7-9,14.4-10.5s8.8-2.3,12.3-2.3c7.3,0,13.4,2,18.2,6.1c4.8,4,7.2,10.6,7.2,19.8
			c0,4.6-0.6,9.6-1.7,15.2c-1.1,5.6-2.4,11-3.8,16.4c-1.4,5.4-2.6,10.5-3.8,15.3s-1.7,8.8-1.7,12c0,2.9,0.6,5.2,1.9,7
			c1.3,1.8,3.7,2.6,7.2,2.6c2.4,0,4.6-0.5,6.5-1.5s3.6-2.4,5-4.1c1.4-1.7,2.8-3.8,4-6.3c1.2-2.4,2.4-5.2,3.7-8.2h9.6
			c-3.2,9.4-6.6,16.9-10.3,22.5s-7.4,9.8-11.2,12.7s-7.5,4.8-11.1,5.7s-6.9,1.4-9.9,1.4c-5,0-9.3-0.7-12.7-2.2
			c-3.4-1.4-6.2-3.4-8.3-5.8c-2.1-2.4-3.7-5.2-4.6-8.3c-0.9-3.1-1.4-6.3-1.4-9.5c0-3.8,0.5-8.3,1.6-13.6s2.2-10.5,3.5-15.9
			c1.3-5.3,2.5-10.5,3.5-15.6C189.5,96.7,190.1,92.3,190.1,88.6z"/>
		<path class="st0" d="M349.5,57.1l-16.7,77.7c-0.6,2.6-0.9,5-0.9,7.3c0,3.2,0.8,5.4,2.3,6.6c1.5,1.2,3.9,1.8,7.1,1.8
			c4.4,0,8.2-1.9,11.3-5.7c3.1-3.8,5.5-8.6,7.2-14.4h9.6c-3.2,9.3-6.8,16.6-10.9,22c-4,5.4-8.1,9.5-12.3,12.3
			c-4.2,2.8-8.3,4.6-12.2,5.4c-4,0.8-7.5,1.1-10.5,1.1c-6.2,0-11.3-1.7-15.2-5c-3.9-3.3-6.3-8.3-7.2-14.8c-1.7,2.6-3.7,5.2-5.9,7.8
			c-2.3,2.6-4.8,4.9-7.7,6.9c-2.8,2-5.9,3.6-9.3,4.8s-7.1,1.8-11.2,1.8c-4,0-7.7-0.6-11.3-1.9c-3.6-1.3-6.8-3.4-9.7-6.3
			c-2.9-2.9-5.2-6.7-6.9-11.3s-2.5-10.4-2.5-17.2c0-5.2,0.5-10.7,1.6-16.7c1.1-5.9,2.7-11.9,4.8-17.8s4.8-11.7,8-17.1
			c3.2-5.5,7-10.3,11.4-14.5s9.3-7.5,14.7-10.1c5.4-2.5,11.5-3.8,18.2-3.8c1.8,0,3.8,0.1,5.8,0.3c2.1,0.2,4,0.8,5.7,1.6
			s3.3,2.1,4.6,3.7c1.3,1.6,2.2,3.7,2.6,6.3l2.3-10.7L349.5,57.1L349.5,57.1z M302.7,70.1c-4.9,0-9.3,2.2-13.2,6.7
			c-4,4.5-7.3,10-10.1,16.4c-2.7,6.5-4.9,13.3-6.4,20.6c-1.5,7.2-2.3,13.5-2.3,18.8c0,4.4,0.4,7.8,1.3,10.2c0.8,2.4,1.8,4.1,3,5.3
			s2.4,1.8,3.7,2.1c1.3,0.2,2.5,0.3,3.5,0.3c1.7,0,3.5-0.4,5.4-1.3c1.9-0.8,3.8-2.1,5.6-3.8c1.8-1.7,3.4-3.8,4.8-6.3
			s2.4-5.4,3.2-8.8l11-51.6c0-0.6-0.2-1.4-0.6-2.4s-0.9-1.9-1.6-2.9s-1.6-1.7-2.7-2.4C306,70.5,304.5,70.1,302.7,70.1z"/>
		<path class="st0" d="M479.2,11.4L453,134.8c-0.6,2.6-0.9,5-0.9,7.3c0,3.2,0.8,5.4,2.3,6.6c1.5,1.2,3.9,1.8,7.1,1.8
			c4.4,0,8.2-1.9,11.3-5.7c3.1-3.8,5.5-8.6,7.2-14.4h9.6c-3.2,9.3-6.8,16.6-10.9,22c-4,5.4-8.1,9.5-12.3,12.3
			c-4.2,2.8-8.3,4.6-12.2,5.4c-4,0.8-7.5,1.1-10.5,1.1c-6.2,0-11.3-1.7-15.2-5c-3.9-3.3-6.3-8.3-7.2-14.8c-1.7,2.6-3.7,5.2-5.9,7.8
			c-2.3,2.6-4.8,4.9-7.7,6.9c-2.8,2-5.9,3.6-9.3,4.8s-7.1,1.8-11.2,1.8c-4,0-7.7-0.6-11.3-1.9c-3.6-1.3-6.8-3.4-9.7-6.3
			c-2.9-2.9-5.2-6.7-6.9-11.3c-1.7-4.6-2.5-10.4-2.5-17.2c0-5.2,0.5-10.7,1.6-16.7c1.1-5.9,2.7-11.9,4.8-17.8
			c2.1-5.9,4.8-11.7,8-17.1c3.2-5.5,7-10.3,11.4-14.5s9.3-7.5,14.7-10.1c5.4-2.5,11.5-3.8,18.2-3.8c1.8,0,3.8,0.1,5.8,0.3
			c2.1,0.2,4,0.8,5.8,1.6s3.4,2.1,4.7,3.7c1.3,1.6,2.1,3.8,2.4,6.5L445.4,16L479.2,11.4z M422.8,70.1c-4.9,0-9.3,2.2-13.2,6.7
			c-4,4.5-7.3,10-10.1,16.4c-2.7,6.5-4.9,13.3-6.4,20.6c-1.5,7.2-2.3,13.5-2.3,18.8c0,4.4,0.4,7.8,1.3,10.2c0.8,2.4,1.8,4.1,3,5.3
			s2.4,1.8,3.7,2.1c1.3,0.2,2.5,0.3,3.5,0.3c1.7,0,3.5-0.4,5.4-1.3c1.9-0.8,3.8-2.1,5.6-3.8c1.8-1.7,3.4-3.8,4.8-6.3
			s2.4-5.4,3.2-8.8l11-51.4c0-1.4-0.6-3.2-1.9-5.5C429,71.3,426.5,70.1,422.8,70.1z"/>
		<path class="st0" d="M511,134.3c0,7.8,1.4,12.9,4.1,15.4c2.7,2.5,6.9,3.8,12.3,3.8c4.6,0,8.7-0.6,12.3-1.8
			c3.7-1.2,7.1-2.9,10.3-4.9c3.2-2.1,6.2-4.5,9.1-7.3c2.9-2.8,5.8-5.8,8.7-9h7.8c-3.2,5.3-6.9,10.5-11,15.5s-8.8,9.5-13.9,13.5
			c-5.2,4-10.9,7.2-17.1,9.6c-6.2,2.4-13.2,3.7-20.8,3.7c-10.9,0-19.6-2.8-26.1-8.5c-6.5-5.6-9.8-14.9-9.8-27.9
			c0-4.4,0.5-9.4,1.4-15.1c0.9-5.6,2.3-11.4,4.2-17.4c1.9-5.9,4.5-11.8,7.7-17.5s7.1-10.9,11.6-15.4s9.9-8.2,16-11
			c6.1-2.7,13-4.1,20.8-4.1c5,0,9.2,0.6,12.5,1.8s5.9,2.9,7.8,4.9c1.9,2.1,3.2,4.4,3.9,7s1,5.3,1,8.2c0,6.4-1.4,12.4-4.3,18
			c-2.9,5.6-6.7,10.5-11.6,14.7c-4.9,4.2-10.4,7.5-16.7,10.1c-6.3,2.5-12.8,4-19.7,4.5c-0.2,1.7-0.3,3.3-0.3,4.8
			C511,131.5,511,132.9,511,134.3z M546.2,77.6c0-2.9-0.4-5.2-1.3-6.8c-0.8-1.7-2.3-2.5-4.5-2.5c-2.9,0-5.7,1.4-8.5,4.1
			c-2.7,2.7-5.3,6.2-7.8,10.6c-2.4,4.3-4.6,9.2-6.5,14.7s-3.5,11-4.7,16.6c4.4-0.3,8.6-1.5,12.7-3.6c4-2.1,7.6-4.9,10.6-8.2
			c3-3.3,5.4-7.2,7.2-11.5C545.3,86.6,546.2,82.2,546.2,77.6z"/>
		<path class="st0" d="M616.1,57.1l-3.2,14.4c4.4-4.3,9-7.9,13.8-11c4.8-3,9.5-4.6,14-4.6c5.2,0,9.1,1.8,11.8,5.3
			c2.7,3.5,4,7.5,4,11.9c0,2-0.3,4-1,5.9c-0.7,2-1.7,3.8-3.1,5.4c-1.4,1.6-3.1,2.9-5.1,3.9c-2.1,1-4.5,1.5-7.2,1.5
			c-3.2,0-5.4-0.8-6.5-2.3s-1.9-3.2-2.4-4.9c-0.5-1.7-0.9-3.4-1.3-4.9c-0.4-1.5-1.4-2.3-3.1-2.3c-2.9,0-5.6,0.8-8.2,2.5
			c-2.6,1.7-5.4,3.9-8.5,6.6l-18.3,86.8H559l24.2-114.2L616.1,57.1L616.1,57.1z"/>
	</g>
	<g>
		<path class="st0" d="M751.4,21.5l-10.7,50.7h1.4c4.6,0,8.8-1.1,12.8-3.4s7.4-5.2,10.4-8.7s5.3-7.5,7.1-11.9s2.6-8.8,2.6-13
			c0-3.2-0.6-6.3-1.7-9.3s-2.9-5.6-5.3-7.9c-2.4-2.3-5.5-4.1-9.3-5.5s-8.5-2.1-14-2.1c-6.7,0-13.5,1.1-20.3,3.4s-12.9,5.7-18.4,10.3
			s-10,10.3-13.4,17.2s-5.2,15.1-5.2,24.6c0,2.7,0.2,5,0.5,6.7c0.3,1.8,0.7,3.2,1,4.3c0.3,1.1,0.7,2.1,1.1,2.7
			c0.4,0.7,0.7,1.3,0.9,1.7c-7.6,0-13.6-1.6-17.9-4.7c-4.3-3.1-6.5-8.6-6.5-16.3c0-7.9,2.3-15.5,6.9-22.7
			c4.6-7.2,10.7-13.7,18.4-19.3s16.5-10.1,26.5-13.5c10-3.3,20.4-5,31.2-5c8.4,0,15.6,1,21.7,3.1c6.1,2.1,11.2,4.8,15.2,8.1
			c4,3.4,7,7.2,8.9,11.5s2.9,8.9,2.9,13.6c0,6.9-1.9,13.6-5.8,20.1c-3.9,6.5-9.6,12-17,16.2c4.9,0.9,9,2.6,12.5,4.9
			c3.4,2.4,6.2,5.2,8.3,8.5s3.7,6.9,4.7,11c1,4,1.5,8.2,1.5,12.4c0,5.5-0.8,12-2.4,19.5s-4.3,14.7-8.2,21.6
			c-3.9,6.9-9,12.7-15.4,17.5s-14.4,7.2-24,7.2c-2.4,0-5-0.2-7.7-0.7s-5.1-1.3-7.3-2.5s-4-2.9-5.5-5.1c-1.4-2.2-2.2-5.1-2.2-8.6
			c0-3.8,1-8.2,3-13.2c2.9,3,5.5,5.2,7.9,6.4s4.8,1.8,7.4,1.8c4.1,0,7.6-1.3,10.5-4s5.3-6,7.1-10.1c1.8-4,3.1-8.5,3.9-13.2
			c0.8-4.8,1.1-9.4,1.1-13.8c0-4-0.3-7.7-1-11.2s-1.9-6.6-3.6-9.3c-1.7-2.7-3.9-4.8-6.8-6.3c-2.8-1.5-6.3-2.3-10.4-2.3
			c-0.9,0-2.4,0-4.4,0.1s-4,0.3-6.2,0.6l-18.8,87.5h-33L717.5,26L751.4,21.5z"/>
		<path class="st0" d="M872.3,56c19.2,0,28.9,12,29.2,35.9c0.6,0.2,1.4,0.2,2.5,0.2c2.6,0,5.4-0.4,8.6-1.1c3.1-0.8,6.2-1.8,9.4-3.1
			c3.1-1.3,6.2-2.8,9.1-4.5c3-1.7,5.7-3.3,8.1-5l2.1,6.2c-4.4,4.7-10.2,8.7-17.2,12c-7.1,3.3-14.7,5.6-23,7
			c-0.9,10.7-3,20.3-6.2,28.8s-7.2,15.8-12.1,21.8c-4.9,6-10.4,10.6-16.7,13.8c-6.2,3.2-12.9,4.8-19.9,4.8c-5.3,0-10.2-0.6-14.7-1.9
			c-4.5-1.3-8.3-3.4-11.5-6.3c-3.2-2.9-5.7-6.6-7.5-11.2c-1.8-4.6-2.7-10.1-2.7-16.7c0-4.4,0.5-9.4,1.4-15.1
			c0.9-5.6,2.4-11.5,4.5-17.5s4.7-11.9,7.9-17.6s7.1-10.9,11.8-15.4c4.6-4.6,10-8.2,16.1-11C857.3,57.3,864.3,56,872.3,56z
			 M855.3,151.2c2.7,0,5.5-1.2,8.3-3.5c2.8-2.4,5.4-5.6,7.8-9.8c2.4-4.2,4.5-9.2,6.3-15s3.2-12,4.1-18.7c-2.4-0.6-4.1-1.8-4.9-3.5
			c-0.8-1.7-1.3-3.8-1.3-6.1c0-3.2,0.6-5.8,1.9-7.9c1.3-2.1,3-3.5,5.1-4.2c-0.3-4.7-1.1-8-2.4-9.9c-1.3-1.9-3.4-2.9-6.3-2.9
			c-4.1,0-8,2.2-11.7,6.7s-6.9,10-9.6,16.4c-2.7,6.5-5,13.3-6.6,20.6c-1.7,7.2-2.5,13.7-2.5,19.3c0,3.8,0.2,6.9,0.6,9.3
			c0.4,2.4,1,4.2,1.9,5.6c0.9,1.4,2.1,2.3,3.7,2.9C851.4,151,853.2,151.2,855.3,151.2z"/>
		<path class="st0" d="M961.6,57.1l-16.4,77.7c-0.5,1.8-0.7,3.7-0.7,5.7c0,2.6,0.5,4.9,1.5,7s2.8,3.1,5.4,3.1
			c4.4,0,8.1-1.9,11.2-5.7c3-3.8,5.4-8.6,7.1-14.4l15.5-73.3h33.1l-27.9,132.5c-1.7,8.2-4.1,14.8-7.2,19.9c-3.1,5-6.6,8.9-10.5,11.8
			c-3.9,2.8-7.9,4.7-12,5.7s-8.1,1.5-11.9,1.5c-3.5,0-6.9-0.6-10.1-1.7c-3.2-1.1-6.1-2.8-8.6-5s-4.5-4.8-6.1-7.9
			c-1.5-3-2.3-6.4-2.3-10.1c0-5.3,1-9.8,3.1-13.5s4.9-6.7,8.5-9.3c3.6-2.5,7.8-4.6,12.6-6.4c4.8-1.8,9.9-3.5,15.4-5.1l2.3-10.1
			c-4.9,5.6-9.7,9.3-14.6,10.9c-4.9,1.6-9.3,2.4-13.2,2.4c-6.9,0-12.6-2.2-17.4-6.5c-4.7-4.3-7.1-11.3-7.1-20.9
			c0-4.1,0.6-9.1,1.8-14.8l15.5-73.3L961.6,57.1L961.6,57.1z M934.4,200.6c0,1.7,0.9,3.3,2.6,5c1.7,1.7,3.9,2.5,6.5,2.5
			c2.3,0,4.7-1.3,7.3-3.8s4.6-7.2,6.2-14l2.7-13.5c-3.7,1.2-7,2.5-10.1,4c-3,1.4-5.7,3.1-8,5s-4.1,4.1-5.4,6.5
			C935,194.8,934.4,197.5,934.4,200.6z"/>
	</g>
</g>
</svg>
