<?xml version="1.0" encoding="UTF-8"?>
<svg id="Layer_1" data-name="Layer 1" xmlns="http://www.w3.org/2000/svg" version="1.1" viewBox="0 0 896.6 228.4">
  <defs>
    <style>
      .cls-1 {
        fill: #d8d4c5;
        stroke-width: 0px;
      }
    </style>
  </defs>
  <g>
    <path class="cls-1" d="M126.1,165.9c-8.1,0-15.8-1-23.1-3.1-7.3-2.1-13.3-4.8-18.2-8.1l7.5-21.8c3.2,2,6.6,3.7,10.3,5.2,3.6,1.5,7.5,2.7,11.5,3.5,4.1.8,8.1,1.3,12.2,1.3,6.1,0,10.3-.8,12.7-2.4,2.3-1.6,3.5-3.7,3.5-6.1s-.7-4-2.2-5.2c-1.5-1.2-4.4-2.3-8.7-3.2l-17.4-3.8c-9.1-2-16-5.4-20.6-10.3-4.6-4.9-6.9-11.3-6.9-19.2s1.8-12.9,5.3-17.9c3.5-5.1,8.6-9.1,15.1-12,6.5-2.9,14.1-4.4,22.8-4.4s13.7,1,19.9,3.1c6.2,2.1,11.4,4.8,15.4,8.3l-7.6,20.5c-3.7-2.9-7.9-5-12.7-6.6-4.8-1.5-10-2.3-15.6-2.3s-9.3.8-12,2.4c-2.7,1.6-4.1,4-4.1,7s.8,3.7,2.4,5.2c1.6,1.5,4.6,2.7,8.9,3.5l17.1,3.7c9.1,1.8,15.9,5.1,20.4,10,4.6,4.9,6.9,11.2,6.9,19.1s-1.8,12.6-5.4,17.6c-3.6,5.1-8.6,9-14.9,11.8-6.4,2.8-13.8,4.2-22.4,4.2Z"/>
    <path class="cls-1" d="M178,164.2V60.1h26v44.6h-2.1c2.4-4.4,5.7-7.9,10-10.3,4.3-2.4,9.2-3.7,14.6-3.7,8.5,0,14.8,2.5,19,7.6,4.1,5,6.2,12.8,6.2,23.1v42.9h-26v-42c0-4.1-.7-7.1-2.2-8.9-1.5-1.8-3.7-2.7-6.9-2.7s-6.8,1.2-9.1,3.6c-2.3,2.4-3.5,5.6-3.5,9.7v40.3h-26Z"/>
    <path class="cls-1" d="M292,165.9c-6.1,0-11.6-1.5-16.3-4.6-4.8-3.1-8.5-7.4-11.2-12.9-2.7-5.6-4-12.3-4-20.2s1.3-14.4,4-20.1c2.7-5.7,6.4-10,11.2-12.9,4.8-3,10.2-4.5,16.3-4.5s10.5,1.3,15,3.9c4.5,2.6,7.4,6,8.8,10.3h-1.4l1.7-12.4h24.9c-.4,3.2-.7,6.5-.8,9.8-.2,3.3-.3,6.6-.3,9.9v52.2h-25.7l-.3-11.9h1.8c-1.5,4.1-4.5,7.3-8.9,9.8-4.4,2.5-9.3,3.7-14.7,3.7ZM300.3,146.6c4.1,0,7.5-1.4,10-4.3,2.5-2.9,3.8-7.6,3.8-14.1s-1.3-11.1-3.8-13.9c-2.5-2.9-5.9-4.3-10-4.3s-7.4,1.4-9.9,4.3c-2.5,2.9-3.8,7.5-3.8,13.9s1.3,11.2,3.8,14.1c2.5,2.9,5.8,4.3,9.9,4.3Z"/>
    <path class="cls-1" d="M379.9,165.9c-6.2,0-11.7-1.5-16.5-4.6-4.8-3.1-8.5-7.4-11.2-12.9-2.7-5.6-4.1-12.3-4.1-20.2s1.4-14.4,4.1-20.1c2.7-5.7,6.5-10,11.2-12.9,4.8-3,10.3-4.5,16.5-4.5s10.4,1.2,14.8,3.7c4.4,2.5,7.3,5.7,8.8,9.8h-2.1v-44h26v104.1h-25.6v-12.6h1.8c-1.3,4.2-4.2,7.7-8.7,10.3-4.5,2.6-9.5,4-15.1,4ZM388.3,146.6c4.1,0,7.4-1.4,10-4.3,2.6-2.9,3.9-7.6,3.9-14.1s-1.3-11.1-3.9-13.9c-2.6-2.9-5.9-4.3-10-4.3s-7.3,1.4-9.9,4.3c-2.6,2.9-4,7.5-4,13.9s1.3,11.2,4,14.1c2.6,2.9,5.9,4.3,9.9,4.3Z"/>
    <path class="cls-1" d="M477.2,165.9c-13.1,0-23.3-3.4-30.6-10.2-7.3-6.8-10.9-16-10.9-27.6s1.5-13.8,4.5-19.4c3-5.6,7.3-10,12.8-13.2,5.5-3.3,12-4.9,19.3-4.9s13.5,1.6,18.4,4.8c4.9,3.2,8.6,7.6,11,13.2,2.5,5.6,3.7,12,3.7,19.2v5.4h-47.8v-12.2h28.4l-2.4,2.1c0-5.3-.9-9.2-2.8-11.7-1.9-2.5-4.7-3.7-8.3-3.7s-7,1.5-9.1,4.6c-2.1,3.1-3.1,7.7-3.1,13.8v2.8c0,6,1.5,10.5,4.5,13.3,3,2.8,7.4,4.2,13.2,4.2s7.2-.4,10.5-1.3c3.3-.8,6.5-2.2,9.5-4l6.6,17c-3.7,2.4-7.9,4.2-12.6,5.6-4.7,1.4-9.7,2.1-15,2.1Z"/>
    <path class="cls-1" d="M513.5,164.2v-52.1c0-3.3,0-6.6-.3-10-.2-3.3-.5-6.6-.8-9.8h25l3,22.3h-4.1c.9-5.5,2.5-10,4.5-13.5,2.1-3.5,4.6-6.2,7.7-7.9,3.1-1.7,6.8-2.6,11.1-2.6s3.5,0,4.5.2c1,.1,2.1.5,3.1,1.1v22.8c-2.3-1-4.2-1.7-5.7-2-1.5-.3-3.4-.4-5.7-.4-3.9,0-7,.7-9.4,2s-4.2,3.4-5.2,6.2c-1.1,2.8-1.6,6.4-1.6,11v32.8h-26.2Z"/>
    <path class="cls-1" d="M574.4,164.2V60.1h48.9c11.1,0,19.7,2.4,25.7,7.3s9,11.4,9,19.7-1.7,11.3-5.1,15.7c-3.4,4.3-8.1,7.2-14.1,8.7v-2.4c7.1,1.4,12.5,4.2,16.4,8.6,3.9,4.3,5.8,9.9,5.8,16.8s-3.2,16.4-9.7,21.7c-6.5,5.3-15.3,8-26.5,8h-50.4ZM600.2,101h18.1c4.9,0,8.4-.8,10.6-2.5,2.2-1.7,3.3-4.2,3.3-7.7s-1.1-6.1-3.3-7.8-5.7-2.4-10.6-2.4h-18.1v20.4ZM600.2,143.7h21.1c4.8,0,8.4-.9,10.7-2.7,2.3-1.8,3.5-4.6,3.5-8.2s-1.2-6.8-3.5-8.5c-2.3-1.7-5.9-2.6-10.7-2.6h-21.1v22Z"/>
    <path class="cls-1" d="M706.6,165.9c-8,0-15-1.5-20.9-4.6-5.9-3.1-10.5-7.4-13.7-13-3.3-5.6-4.9-12.3-4.9-20.2s1.6-14.4,4.9-19.9c3.3-5.6,7.8-9.9,13.7-12.9,5.9-3.1,12.9-4.6,21-4.6s14.9,1.5,20.8,4.6c5.8,3.1,10.4,7.4,13.6,13s4.9,12.2,4.9,19.9-1.6,14.4-4.9,20.1c-3.3,5.7-7.8,10-13.7,13.1-5.9,3.1-12.9,4.6-20.9,4.6ZM706.6,146.6c4,0,7.1-1.4,9.5-4.3,2.4-2.9,3.6-7.6,3.6-14.1s-1.2-11.1-3.6-13.9c-2.4-2.9-5.6-4.3-9.7-4.3s-7.2,1.4-9.5,4.3c-2.3,2.9-3.5,7.5-3.5,13.9s1.2,11.2,3.5,14.1c2.3,2.9,5.5,4.3,9.7,4.3Z"/>
    <path class="cls-1" d="M747.4,188.9l-1.4-20.9c4.6.2,8.5.2,11.8,0,3.2-.2,4.7-.4,7.2-1,2.6-.7,5.3-2,6.4-4.7l3.3-7.3-.7,9.6-31.4-72.1h27.4l18.1,46.8h-4.8l18.7-46.8h25.6l-29,65.8c-2.5,5.9-7,15.1-9.7,18.9-3.6,4.9-8.1,8.2-13.8,10-3.9,1.2-10.1,2-14.2,2.1s-8.6,0-13.4-.3Z"/>
  </g>
  <path class="cls-1" d="M782.4,228.4H114.2C51.2,228.4,0,177.2,0,114.2S51.2,0,114.2,0h668.1c63,0,114.2,51.2,114.2,114.2s-51.2,114.2-114.2,114.2ZM114.2,27.7c-47.7,0-86.5,38.8-86.5,86.5s38.8,86.5,86.5,86.5h668.1c47.7,0,86.5-38.8,86.5-86.5s-38.8-86.5-86.5-86.5H114.2Z"/>
</svg>