<?xml version="1.0" encoding="utf-8"?>
<!-- Generator: Adobe Illustrator 21.1.0, SVG Export Plug-In . SVG Version: 6.00 Build 0)  -->
<svg version="1.1" id="Layer_1" xmlns="http://www.w3.org/2000/svg" xmlns:xlink="http://www.w3.org/1999/xlink" x="0px" y="0px"
	 viewBox="0 0 64 64" enable-background="new 0 0 64 64" xml:space="preserve">
<path fill-rule="evenodd" clip-rule="evenodd" fill="#D8D4C5" d="M31.998,1.278C14.605,1.278,0.5,15.381,0.5,32.78
	c0,13.916,9.025,25.722,21.543,29.888c1.575,0.289,2.15-0.684,2.15-1.518c0-0.748-0.027-2.729-0.043-5.357
	C15.388,57.696,13.54,51.57,13.54,51.57c-1.432-3.639-3.497-4.608-3.497-4.608c-2.86-1.954,0.216-1.915,0.216-1.915
	c3.161,0.223,4.825,3.246,4.825,3.246c2.81,4.814,7.372,3.424,9.167,2.617c0.286-2.036,1.1-3.424,2-4.211
	c-6.995-0.795-14.348-3.497-14.348-15.568c0-3.439,1.227-6.251,3.242-8.453c-0.324-0.797-1.405-4,0.309-8.336
	c0,0,2.645-0.847,8.662,3.229c2.513-0.699,5.207-1.048,7.886-1.06c2.675,0.012,5.37,0.362,7.886,1.06
	c6.014-4.076,8.654-3.229,8.654-3.229c1.719,4.337,0.637,7.54,0.313,8.336c2.019,2.202,3.238,5.014,3.238,8.453
	c0,12.101-7.365,14.764-14.382,15.544c1.131,0.972,2.139,2.895,2.139,5.833c0,4.211-0.039,7.609-0.039,8.641
	c0,0.842,0.567,1.822,2.166,1.515C54.483,58.491,63.5,46.692,63.5,32.78C63.5,15.381,49.395,1.278,31.998,1.278z"/>
</svg>
