<?xml version="1.0" encoding="utf-8"?>
<!-- Generator: Adobe Illustrator 21.1.0, SVG Export Plug-In . SVG Version: 6.00 Build 0)  -->
<svg version="1.1" id="Layer_1" xmlns="http://www.w3.org/2000/svg" xmlns:xlink="http://www.w3.org/1999/xlink" x="0px" y="0px"
	 viewBox="0 0 64 64" enable-background="new 0 0 64 64" xml:space="preserve">
<g>
	<path fill-rule="evenodd" clip-rule="evenodd" fill="#1F1F1F" d="M25.859,30.456l-14.201-6.739c-3.378-1.603-3.378-4.226,0-5.829
		c0,0,4.522-1.773,8.342-3.586c3.231-1.533,5.859-3.154,5.859-3.154c3.378-1.603,8.904-1.603,12.282,0c0,0,2.694,1.467,5.984,3.029
		c3.777,1.792,8.217,3.711,8.217,3.711c3.378,1.603,3.378,4.226,0,5.829l-14.201,6.739C34.763,32.059,29.237,32.059,25.859,30.456z"
		/>
	<path fill-rule="evenodd" clip-rule="evenodd" fill="#1F1F1F" d="M23.409,53.817L3.544,44.39c-4.725-2.242-4.725-5.911,0-8.154
		l19.866-9.428c4.725-2.242,12.456-2.242,17.181,0l19.866,9.428c4.725,2.242,4.725,5.911,0,8.154l-19.866,9.428
		C35.866,56.06,28.134,56.06,23.409,53.817z"/>
	<path fill-rule="evenodd" clip-rule="evenodd" fill="#1F1F1F" d="M9.125,20.303C6.25,27.428,2.5,40.053,2.5,40.053H61.5
		l-6.625-19.75H9.125z"/>
	
		<path fill-rule="evenodd" clip-rule="evenodd" fill="none" stroke="#D8D4C5" stroke-width="2" stroke-linecap="round" stroke-miterlimit="10" d="
		M11.75,21.678c2.985,1.537,14.18,7.419,16.375,7.825c0.741,0.137,2.364,0.3,3.5,0.3c1.178,0,2.702-0.125,3.55-0.3
		c4.049-0.836,12.852-6.547,15.325-7.825"/>
	
		<line fill="none" stroke="#D8D4C5" stroke-width="2" stroke-linecap="round" stroke-miterlimit="10" x1="31.625" y1="29.803" x2="32" y2="49.753"/>
</g>
</svg>
