<?xml version="1.0" encoding="utf-8"?>
<!-- Generator: Adobe Illustrator 21.1.0, SVG Export Plug-In . SVG Version: 6.00 Build 0)  -->
<svg version="1.1" id="Layer_1" xmlns="http://www.w3.org/2000/svg" xmlns:xlink="http://www.w3.org/1999/xlink" x="0px" y="0px"
	 viewBox="0 0 1018.223 228.436" enable-background="new 0 0 1018.223 228.436" xml:space="preserve">
<g>
	<g>
		<path fill="#D8D4C5" d="M118.102,27.412c0,6.703-1.678,12.221-5.025,16.561c-3.352,4.34-7.92,6.511-13.706,6.511
			c-4.265,0-7.767-1.599-10.508-4.797c3.045-1.828,5.518-4.605,7.424-8.338c1.903-3.73,2.856-7.499,2.856-11.307
			c0-3.958-1.221-7.46-3.655-10.508c-2.438-3.045-6.853-4.569-13.249-4.569c-6.396,0-11.5,1.713-15.305,5.14
			c-3.808,3.426-5.711,8.566-5.711,15.419c0,5.636,1.257,10.547,3.769,14.734c2.513,4.19,5.672,8.149,9.48,11.879
			c3.805,3.733,7.956,7.464,12.45,11.193c4.49,3.733,8.641,7.92,12.45,12.564c3.805,4.647,6.967,9.937,9.48,15.876
			c2.513,5.939,3.769,13.021,3.769,21.245c0,9.594-1.792,17.932-5.368,25.014c-3.58,7.082-8.338,12.946-14.277,17.59
			c-5.939,4.647-12.792,8.109-20.559,10.394c-7.767,2.284-15.762,3.426-23.986,3.426c-6.55,0-12.757-0.685-18.618-2.055
			c-5.865-1.371-11.004-3.616-15.419-6.739c-4.419-3.12-7.92-7.117-10.508-11.993C1.292,149.779,0,143.839,0,136.833
			c0-6.089,0.989-11.496,2.97-16.219c1.977-4.719,4.569-8.642,7.767-11.764c3.198-3.12,6.814-5.482,10.851-7.082
			c4.033-1.599,8.031-2.399,11.993-2.399c1.977,0,4.072,0.228,6.282,0.685c2.206,0.457,4.262,1.257,6.168,2.399
			c1.903,1.142,3.541,2.706,4.911,4.683c1.371,1.981,2.284,4.419,2.741,7.31c-3.198,0-6.396,0.422-9.594,1.257
			c-3.198,0.839-6.093,2.134-8.681,3.883c-2.591,1.753-4.722,4.037-6.396,6.853c-1.678,2.819-2.513,6.207-2.513,10.165
			c0,5.789,1.942,10.661,5.825,14.619c3.883,3.962,9.48,5.939,16.79,5.939c7.767,0,14.085-2.549,18.96-7.652
			c4.872-5.101,7.31-12.45,7.31-22.044c0-6.546-1.142-12.45-3.426-17.704c-2.285-5.254-5.179-10.126-8.681-14.62
			c-3.505-4.49-7.274-8.831-11.307-13.021c-4.037-4.187-7.806-8.374-11.308-12.564c-3.505-4.187-6.396-8.602-8.68-13.249
			c-2.285-4.644-3.427-9.784-3.427-15.42c0-5.939,1.371-11.422,4.112-16.447c2.741-5.025,6.471-9.327,11.193-12.907
			C48.578,7.96,54.175,5.14,60.65,3.084C67.121,1.028,74.013,0,81.323,0c2.741,0,6.168,0.268,10.279,0.8
			c4.112,0.535,8.145,1.713,12.107,3.541c3.959,1.828,7.346,4.569,10.166,8.224C116.692,16.219,118.102,21.17,118.102,27.412z"/>
		<path fill="#D8D4C5" d="M190.055,88.633c0-7.767-2.741-11.65-8.224-11.65c-4.112,0-7.692,2.056-10.736,6.168
			c-3.048,4.112-5.408,9.063-7.082,14.849l-15.534,73.328h-32.894L148.708,15.99l33.809-4.568l-12.336,57.566
			c4.872-5.482,9.669-8.984,14.391-10.508c4.719-1.52,8.831-2.284,12.336-2.284c7.31,0,13.364,2.02,18.161,6.054
			c4.797,4.037,7.196,10.622,7.196,19.76c0,4.569-0.571,9.634-1.714,15.191c-1.142,5.561-2.398,11.044-3.769,16.447
			c-1.371,5.408-2.627,10.508-3.769,15.305c-1.142,4.797-1.713,8.795-1.713,11.993c0,2.894,0.646,5.218,1.942,6.967
			c1.292,1.753,3.691,2.627,7.196,2.627c2.434,0,4.604-0.492,6.511-1.485c1.902-0.989,3.576-2.36,5.025-4.112
			c1.446-1.749,2.777-3.844,3.998-6.282c1.217-2.434,2.434-5.175,3.655-8.224h9.594c-3.198,9.445-6.625,16.944-10.28,22.501
			c-3.655,5.561-7.388,9.787-11.193,12.678c-3.809,2.894-7.503,4.797-11.079,5.711c-3.58,0.914-6.892,1.37-9.937,1.37
			c-5.025,0-9.252-0.724-12.678-2.17c-3.427-1.446-6.207-3.387-8.338-5.825c-2.134-2.434-3.655-5.214-4.568-8.338
			c-0.914-3.119-1.371-6.282-1.371-9.48c0-3.804,0.532-8.337,1.599-13.592c1.064-5.254,2.245-10.543,3.541-15.876
			c1.292-5.329,2.474-10.544,3.541-15.648C189.52,96.668,190.055,92.288,190.055,88.633z"/>
		<path fill="#D8D4C5" d="M349.501,57.109l-16.676,77.668c-0.61,2.591-0.914,5.026-0.914,7.31c0,3.198,0.76,5.407,2.284,6.625
			c1.52,1.22,3.883,1.827,7.082,1.827c4.415,0,8.185-1.903,11.307-5.711c3.12-3.805,5.518-8.602,7.196-14.392h9.594
			c-3.198,9.291-6.817,16.64-10.85,22.044c-4.037,5.408-8.149,9.519-12.336,12.336c-4.19,2.819-8.263,4.608-12.221,5.368
			c-3.962,0.764-7.463,1.142-10.508,1.142c-6.246,0-11.307-1.674-15.191-5.025c-3.884-3.348-6.282-8.299-7.196-14.848
			c-1.677,2.591-3.655,5.179-5.939,7.767c-2.285,2.591-4.836,4.876-7.653,6.853c-2.82,1.982-5.904,3.581-9.252,4.797
			c-3.351,1.217-7.082,1.827-11.193,1.827c-3.962,0-7.731-0.649-11.307-1.942c-3.58-1.292-6.817-3.387-9.709-6.281
			c-2.894-2.892-5.179-6.661-6.853-11.308c-1.677-4.643-2.513-10.394-2.513-17.247c0-5.175,0.532-10.736,1.599-16.676
			c1.064-5.939,2.663-11.879,4.797-17.818c2.131-5.94,4.797-11.65,7.995-17.133c3.198-5.482,7.003-10.316,11.422-14.506
			c4.415-4.187,9.327-7.539,14.734-10.051c5.404-2.513,11.458-3.769,18.161-3.769c1.828,0,3.769,0.114,5.825,0.343
			c2.056,0.228,3.958,0.764,5.711,1.599c1.749,0.839,3.273,2.056,4.568,3.655c1.292,1.599,2.17,3.694,2.627,6.282l2.284-10.737
			H349.501z M302.672,70.13c-4.876,0-9.291,2.249-13.249,6.739c-3.962,4.494-7.31,9.976-10.051,16.447
			c-2.741,6.475-4.876,13.328-6.396,20.56c-1.524,7.235-2.285,13.516-2.285,18.846c0,4.419,0.418,7.806,1.257,10.165
			c0.835,2.362,1.828,4.111,2.97,5.254s2.359,1.828,3.655,2.056c1.292,0.228,2.474,0.343,3.541,0.343
			c1.674,0,3.462-0.418,5.368-1.257c1.902-0.835,3.769-2.092,5.597-3.769c1.828-1.674,3.427-3.769,4.797-6.282
			s2.434-5.443,3.198-8.795l10.965-51.626c0-0.607-0.193-1.406-0.571-2.399c-0.382-0.989-0.914-1.942-1.599-2.856
			c-0.685-0.914-1.599-1.713-2.741-2.398C305.984,70.473,304.5,70.13,302.672,70.13z"/>
		<path fill="#D8D4C5" d="M479.25,11.422l-26.27,123.355c-0.61,2.591-0.914,5.026-0.914,7.31c0,3.198,0.76,5.407,2.284,6.625
			c1.521,1.22,3.883,1.827,7.082,1.827c4.415,0,8.185-1.903,11.307-5.711c3.12-3.805,5.518-8.602,7.196-14.392h9.594
			c-3.198,9.291-6.817,16.64-10.85,22.044c-4.037,5.408-8.149,9.519-12.336,12.336c-4.19,2.819-8.263,4.608-12.221,5.368
			c-3.962,0.764-7.463,1.142-10.508,1.142c-6.246,0-11.307-1.674-15.191-5.025c-3.884-3.348-6.282-8.299-7.196-14.848
			c-1.677,2.591-3.655,5.179-5.939,7.767c-2.285,2.591-4.836,4.876-7.653,6.853c-2.82,1.982-5.904,3.581-9.252,4.797
			c-3.351,1.217-7.082,1.827-11.193,1.827c-3.962,0-7.731-0.649-11.307-1.942c-3.58-1.292-6.817-3.387-9.709-6.281
			c-2.894-2.892-5.179-6.661-6.853-11.308c-1.677-4.643-2.513-10.394-2.513-17.247c0-5.175,0.532-10.736,1.599-16.676
			c1.064-5.939,2.663-11.879,4.797-17.818c2.131-5.94,4.797-11.65,7.995-17.133c3.198-5.482,7.003-10.316,11.422-14.506
			c4.415-4.187,9.327-7.539,14.734-10.051c5.404-2.513,11.458-3.769,18.161-3.769c1.828,0,3.769,0.114,5.825,0.343
			c2.056,0.228,3.997,0.764,5.825,1.599c1.828,0.839,3.387,2.056,4.683,3.655c1.292,1.599,2.092,3.769,2.399,6.51l11.193-52.083
			L479.25,11.422z M422.826,70.13c-4.876,0-9.291,2.249-13.249,6.739c-3.962,4.494-7.31,9.976-10.051,16.447
			c-2.741,6.475-4.876,13.328-6.396,20.56c-1.524,7.235-2.285,13.516-2.285,18.846c0,4.419,0.418,7.806,1.257,10.165
			c0.835,2.362,1.828,4.111,2.97,5.254s2.359,1.828,3.655,2.056c1.292,0.228,2.474,0.343,3.541,0.343
			c1.674,0,3.462-0.418,5.368-1.257c1.902-0.835,3.769-2.092,5.597-3.769c1.828-1.674,3.427-3.769,4.797-6.282
			c1.371-2.513,2.434-5.443,3.198-8.795l10.965-51.398c0-1.371-0.65-3.198-1.942-5.482C428.954,71.272,426.481,70.13,422.826,70.13z
			"/>
		<path fill="#D8D4C5" d="M510.999,134.321c0,7.767,1.37,12.907,4.111,15.419c2.742,2.513,6.854,3.77,12.337,3.77
			c4.568,0,8.681-0.607,12.335-1.828c3.654-1.217,7.082-2.856,10.28-4.911c3.198-2.056,6.243-4.49,9.137-7.31
			c2.891-2.816,5.787-5.825,8.681-9.023h7.767c-3.198,5.333-6.853,10.509-10.965,15.534c-4.112,5.025-8.759,9.519-13.934,13.477
			c-5.18,3.962-10.89,7.161-17.133,9.595c-6.247,2.434-13.175,3.654-20.789,3.654c-10.879,0-19.574-2.816-26.091-8.452
			c-6.518-5.632-9.773-14.924-9.773-27.869c0-4.415,0.457-9.44,1.371-15.076c0.914-5.632,2.32-11.422,4.226-17.361
			c1.902-5.939,4.454-11.764,7.653-17.475c3.198-5.711,7.081-10.851,11.65-15.419c4.569-4.568,9.898-8.224,15.991-10.965
			c6.089-2.741,13.02-4.112,20.787-4.112c5.026,0,9.174,0.611,12.45,1.828c3.273,1.221,5.86,2.855,7.767,4.911
			c1.902,2.056,3.198,4.379,3.883,6.967c0.685,2.591,1.028,5.333,1.028,8.224c0,6.396-1.441,12.414-4.322,18.047
			c-2.884,5.636-6.749,10.547-11.6,14.734c-4.855,4.19-10.426,7.539-16.719,10.051c-6.293,2.513-12.849,3.998-19.674,4.455
			c-0.151,1.677-0.264,3.276-0.34,4.797C511.035,131.504,510.999,132.95,510.999,134.321z M546.178,77.622
			c0-2.877-0.422-5.151-1.257-6.818c-0.839-1.667-2.324-2.502-4.455-2.502c-2.894,0-5.711,1.367-8.452,4.094
			c-2.742,2.727-5.333,6.25-7.767,10.569c-2.438,4.319-4.608,9.209-6.51,14.663c-1.906,5.454-3.467,10.986-4.684,16.59
			c4.415-0.3,8.641-1.513,12.678-3.634c4.034-2.12,7.575-4.851,10.622-8.185c3.045-3.333,5.444-7.16,7.197-11.479
			C545.3,86.602,546.178,82.169,546.178,77.622z"/>
		<path fill="#D8D4C5" d="M616.077,57.109l-3.198,14.392c4.415-4.262,9.023-7.917,13.82-10.965c4.797-3.045,9.48-4.569,14.049-4.569
			c5.176,0,9.099,1.753,11.764,5.254c2.663,3.505,3.998,7.464,3.998,11.879c0,1.981-0.343,3.962-1.028,5.939
			c-0.685,1.981-1.714,3.769-3.084,5.368c-1.371,1.599-3.084,2.895-5.14,3.883c-2.056,0.992-4.455,1.485-7.196,1.485
			c-3.198,0-5.368-0.76-6.51-2.285c-1.142-1.52-1.942-3.159-2.399-4.911c-0.457-1.749-0.878-3.387-1.257-4.911
			c-0.382-1.52-1.41-2.284-3.084-2.284c-2.895,0-5.636,0.839-8.224,2.513c-2.591,1.678-5.407,3.883-8.452,6.625l-18.275,86.806
			h-32.895l24.214-114.218H616.077z"/>
	</g>
	<g>
		<path fill="#D8D4C5" d="M751.41,21.473l-10.736,50.713h1.37c4.569,0,8.831-1.142,12.793-3.426
			c3.959-2.284,7.424-5.176,10.393-8.681c2.97-3.501,5.329-7.46,7.082-11.879c1.75-4.415,2.627-8.756,2.627-13.021
			c0-3.198-0.574-6.282-1.72-9.251s-2.901-5.597-5.268-7.881c-2.366-2.284-5.457-4.112-9.273-5.482
			c-3.819-1.371-8.474-2.056-13.97-2.056c-6.718,0-13.475,1.142-20.27,3.427c-6.797,2.284-12.939,5.711-18.436,10.279
			c-5.496,4.569-9.965,10.319-13.398,17.247c-3.437,6.932-5.155,15.116-5.155,24.557c0,2.741,0.161,4.99,0.489,6.739
			c0.325,1.753,0.65,3.198,0.978,4.34c0.329,1.142,0.696,2.056,1.103,2.741c0.407,0.685,0.693,1.257,0.857,1.714
			c-7.618,0-13.592-1.56-17.933-4.683c-4.34-3.119-6.51-8.566-6.51-16.333c0-7.917,2.284-15.494,6.853-22.729
			c4.568-7.231,10.698-13.667,18.389-19.303c7.688-5.633,16.523-10.126,26.498-13.478C728.145,1.678,738.54,0,749.355,0
			c8.374,0,15.609,1.028,21.701,3.084c6.089,2.056,11.155,4.762,15.192,8.11c4.033,3.351,7.003,7.196,8.909,11.536
			c1.903,4.34,2.856,8.873,2.856,13.592c0,6.853-1.942,13.556-5.825,20.102c-3.883,6.55-9.559,11.957-17.019,16.219
			c4.873,0.914,9.023,2.552,12.45,4.911c3.426,2.363,6.204,5.179,8.338,8.452c2.131,3.276,3.691,6.932,4.683,10.965
			c0.989,4.037,1.485,8.188,1.485,12.45c0,5.482-0.8,11.993-2.399,19.531s-4.34,14.735-8.223,21.587
			c-3.884,6.853-9.023,12.678-15.42,17.475c-6.396,4.797-14.392,7.196-23.986,7.196c-2.438,0-4.99-0.228-7.652-0.685
			c-2.667-0.457-5.104-1.296-7.31-2.513c-2.209-1.217-4.037-2.93-5.482-5.14c-1.449-2.205-2.171-5.061-2.171-8.566
			c0-3.804,0.989-8.224,2.97-13.249c2.891,3.048,5.519,5.179,7.881,6.396c2.36,1.22,4.833,1.827,7.424,1.827
			c4.112,0,7.613-1.331,10.508-3.998c2.892-2.662,5.254-6.014,7.082-10.051c1.827-4.033,3.119-8.452,3.883-13.249
			c0.76-4.797,1.142-9.402,1.142-13.821c0-3.959-0.346-7.688-1.031-11.193c-0.689-3.502-1.874-6.585-3.552-9.252
			c-1.677-2.663-3.929-4.758-6.757-6.282c-2.826-1.52-6.299-2.285-10.422-2.285c-0.918,0-2.367,0.04-4.351,0.114
			c-1.984,0.079-4.047,0.268-6.185,0.571l-18.782,87.491h-32.984l31.178-145.285L751.41,21.473z"/>
		<path fill="#D8D4C5" d="M872.253,55.967c19.189,0,28.933,11.957,29.24,35.865c0.607,0.154,1.446,0.228,2.513,0.228
			c2.588,0,5.443-0.378,8.566-1.142c3.12-0.76,6.243-1.788,9.366-3.084c3.12-1.292,6.168-2.777,9.137-4.454
			c2.97-1.674,5.672-3.348,8.11-5.025l2.056,6.168c-4.419,4.722-10.166,8.72-17.248,11.993c-7.081,3.277-14.733,5.597-22.958,6.967
			c-0.914,10.662-2.969,20.256-6.168,28.783c-3.198,8.531-7.235,15.801-12.107,21.815c-4.876,6.018-10.433,10.622-16.676,13.821
			c-6.247,3.198-12.871,4.797-19.875,4.797c-5.332,0-10.244-0.649-14.734-1.942c-4.494-1.292-8.337-3.387-11.536-6.281
			c-3.198-2.892-5.711-6.625-7.539-11.194c-1.826-4.568-2.74-10.126-2.74-16.676c0-4.416,0.456-9.441,1.37-15.077
			c0.914-5.632,2.399-11.457,4.455-17.475c2.055-6.014,4.683-11.879,7.88-17.59c3.198-5.711,7.118-10.851,11.765-15.419
			c4.644-4.568,10.012-8.224,16.105-10.965C857.327,57.337,864.333,55.967,872.253,55.967z M855.349,151.224
			c2.741,0,5.519-1.178,8.338-3.541c2.817-2.359,5.404-5.632,7.767-9.823c2.359-4.187,4.454-9.173,6.282-14.962
			c1.827-5.786,3.198-12.029,4.112-18.732c-2.438-0.607-4.077-1.789-4.912-3.541c-0.839-1.749-1.257-3.77-1.257-6.054
			c0-3.198,0.646-5.825,1.942-7.881c1.293-2.056,3.006-3.462,5.14-4.226c-0.306-4.719-1.107-8.031-2.399-9.937
			c-1.296-1.903-3.39-2.856-6.282-2.856c-4.111,0-7.995,2.249-11.65,6.739c-3.655,4.494-6.853,9.976-9.594,16.447
			c-2.742,6.475-4.951,13.328-6.625,20.559c-1.677,7.235-2.512,13.671-2.512,19.303c0,3.808,0.189,6.892,0.571,9.251
			c0.379,2.363,1.028,4.226,1.942,5.597c0.914,1.37,2.131,2.323,3.655,2.855C851.386,150.961,853.214,151.224,855.349,151.224z"/>
		<path fill="#D8D4C5" d="M961.57,57.109l-16.447,77.668c-0.456,1.828-0.685,3.733-0.685,5.711c0,2.591,0.493,4.911,1.485,6.967
			c0.988,2.056,2.776,3.084,5.367,3.084c4.416,0,8.146-1.903,11.194-5.711c3.045-3.805,5.404-8.602,7.082-14.392l15.533-73.328
			h33.124l-27.869,132.493c-1.678,8.224-4.076,14.848-7.196,19.874c-3.123,5.025-6.625,8.944-10.508,11.764
			c-3.883,2.816-7.881,4.718-11.993,5.711c-4.112,0.989-8.073,1.485-11.878,1.485c-3.505,0-6.853-0.571-10.052-1.713
			c-3.198-1.143-6.053-2.82-8.566-5.026c-2.513-2.209-4.533-4.836-6.054-7.881c-1.524-3.048-2.284-6.396-2.284-10.051
			c0-5.333,1.028-9.823,3.084-13.477c2.056-3.655,4.872-6.739,8.453-9.252c3.576-2.512,7.767-4.647,12.564-6.396
			c4.797-1.753,9.937-3.463,15.419-5.14l2.284-10.052c-4.876,5.636-9.747,9.252-14.62,10.851c-4.876,1.599-9.291,2.398-13.249,2.398
			c-6.853,0-12.642-2.17-17.361-6.51c-4.722-4.34-7.082-11.307-7.082-20.901c0-4.112,0.607-9.059,1.828-14.849l15.533-73.328H961.57
			z M934.387,200.567c0,1.674,0.874,3.348,2.627,5.025c1.749,1.674,3.919,2.513,6.51,2.513c2.284,0,4.719-1.257,7.31-3.769
			c2.588-2.513,4.644-7.196,6.168-14.049l2.741-13.478c-3.655,1.217-7.007,2.549-10.052,3.998c-3.048,1.446-5.71,3.119-7.995,5.025
			c-2.284,1.903-4.076,4.072-5.368,6.51C935.033,194.778,934.387,197.519,934.387,200.567z"/>
	</g>
</g>
</svg>
